REM MD5 9e8c54979f42fdf699f825f24ea76e7f
FILE "Euro Demo 50 (Europe).bin" BINARY
  TRACK 01 MODE2/2352
    INDEX 01 00:00:00
  TRACK 02 AUDIO
    INDEX 00 51:14:54
    INDEX 01 51:16:54
  TRACK 03 AUDIO
    INDEX 00 54:56:62
    INDEX 01 54:58:62
REM LEADOUT 58:00:19
